<?xml version="1.0" encoding="utf-8"?>
<svg width="1112px" height="1578px" viewBox="0 0 1112 1578" version="1.1" xmlns:xlink="http://www.w3.org/1999/xlink" xmlns="http://www.w3.org/2000/svg">
  <defs>
    <linearGradient x1="0.64781463" y1="1" x2="0.76221955" y2="0.08635491" id="gradient_1">
      <stop offset="0" stop-color="#F8FDFF" />
      <stop offset="1" stop-color="#EEF9FF" />
    </linearGradient>
    <path d="M0 0L1112 0L1112 1578L0 1578L0 0Z" id="path_1" />
    <clipPath id="mask_1">
      <use xlink:href="#path_1" />
    </clipPath>
  </defs>
  <g id="hexagon_BG">
    <path d="M0 0L1112 0L1112 1578L0 1578L0 0Z" id="Mask" fill="none" fill-rule="evenodd" stroke="none" />
    <g clip-path="url(#mask_1)">
      <path d="M1305.23 0L458.17 0Q457.679 0 457.189 0.0160602Q456.698 0.0321204 456.208 0.0642236Q455.719 0.0963267 455.23 0.144439Q454.742 0.19255 454.255 0.256619Q453.768 0.320688 453.284 0.400646Q452.8 0.480603 452.318 0.576363Q451.837 0.672124 451.359 0.783584Q450.881 0.895045 450.406 1.02209Q449.932 1.14913 449.462 1.29161Q448.993 1.4341 448.528 1.59188Q448.063 1.74966 447.604 1.92256Q447.144 2.09546 446.691 2.28331Q446.237 2.47115 445.79 2.67372Q445.343 2.8763 444.903 3.0934Q444.462 3.3105 444.03 3.54189Q443.597 3.77327 443.171 4.0187Q442.746 4.26413 442.329 4.52333Q441.913 4.78253 441.504 5.05524Q441.096 5.32794 440.697 5.61385Q440.298 5.89976 439.909 6.19858Q439.519 6.49739 439.14 6.80879Q438.76 7.12018 438.391 7.44382Q438.022 7.76747 437.664 8.10301Q437.306 8.43856 436.959 8.78565Q436.612 9.13273 436.276 9.49099Q435.94 9.84925 435.617 10.2183Q435.293 10.5873 434.982 10.9668Q434.67 11.3462 434.371 11.7356Q434.072 12.1251 433.787 12.5241Q433.501 12.9231 433.228 13.3312Q432.955 13.7393 432.696 14.1562Q432.437 14.573 432.191 14.9981L8.66165 748.481Q8.41616 748.906 8.1847 749.339Q7.95326 749.772 7.73609 750.213Q7.51894 750.653 7.3163 751.1Q7.11366 751.547 6.92577 752.001Q6.73787 752.454 6.56492 752.914Q6.39197 753.373 6.23414 753.838Q6.07632 754.303 5.93379 754.773Q5.79126 755.243 5.66418 755.717Q5.5371 756.191 5.4256 756.669Q5.31411 757.147 5.21831 757.629Q5.12252 758.11 5.04254 758.595Q4.96256 759.079 4.89846 759.566Q4.83437 760.053 4.78624 760.541Q4.73811 761.03 4.706 761.52Q4.67388 762.01 4.65781 762.5Q4.64174 762.991 4.64174 763.482Q4.64173 763.973 4.65779 764.464Q4.67385 764.954 4.70596 765.444Q4.73806 765.934 4.78618 766.422Q4.8343 766.911 4.89838 767.398Q4.96246 767.885 5.04244 768.369Q5.12241 768.853 5.21819 769.335Q5.31397 769.816 5.42546 770.294Q5.53695 770.773 5.66402 771.247Q5.79109 771.721 5.93361 772.191Q6.07613 772.661 6.23394 773.125Q6.39176 773.59 6.5647 774.05Q6.73765 774.509 6.92553 774.963Q7.11342 775.417 7.31604 775.864Q7.51867 776.311 7.73582 776.751Q7.95297 777.192 8.18441 777.624Q8.41585 778.057 8.66134 778.482L432.191 1512Q432.437 1512.43 432.696 1512.84Q432.955 1513.26 433.228 1513.67Q433.501 1514.08 433.787 1514.48Q434.073 1514.87 434.371 1515.26Q434.67 1515.65 434.982 1516.03Q435.293 1516.41 435.617 1516.78Q435.94 1517.15 436.276 1517.51Q436.612 1517.87 436.959 1518.21Q437.306 1518.56 437.664 1518.9Q438.022 1519.23 438.392 1519.56Q438.761 1519.88 439.14 1520.19Q439.52 1520.5 439.909 1520.8Q440.298 1521.1 440.697 1521.39Q441.096 1521.67 441.505 1521.94Q441.913 1522.22 442.33 1522.48Q442.746 1522.74 443.172 1522.98Q443.597 1523.23 444.03 1523.46Q444.463 1523.69 444.903 1523.91Q445.343 1524.12 445.79 1524.33Q446.237 1524.53 446.691 1524.72Q447.144 1524.9 447.604 1525.08Q448.063 1525.25 448.528 1525.41Q448.993 1525.57 449.463 1525.71Q449.932 1525.85 450.407 1525.98Q450.881 1526.1 451.359 1526.22Q451.837 1526.33 452.318 1526.42Q452.8 1526.52 453.284 1526.6Q453.768 1526.68 454.255 1526.74Q454.742 1526.81 455.23 1526.86Q455.719 1526.9 456.209 1526.94Q456.699 1526.97 457.189 1526.98Q457.68 1527 458.171 1527L1305.23 1527Q1305.72 1527 1306.22 1526.98Q1306.71 1526.97 1307.2 1526.94Q1307.69 1526.9 1308.17 1526.86Q1308.66 1526.81 1309.15 1526.74Q1309.64 1526.68 1310.12 1526.6Q1310.6 1526.52 1311.09 1526.42Q1311.57 1526.33 1312.05 1526.22Q1312.52 1526.1 1313 1525.98Q1313.47 1525.85 1313.94 1525.71Q1314.41 1525.57 1314.88 1525.41Q1315.34 1525.25 1315.8 1525.08Q1316.26 1524.9 1316.71 1524.72Q1317.17 1524.53 1317.61 1524.33Q1318.06 1524.12 1318.5 1523.91Q1318.94 1523.69 1319.38 1523.46Q1319.81 1523.23 1320.23 1522.98Q1320.66 1522.74 1321.08 1522.48Q1321.49 1522.22 1321.9 1521.94Q1322.31 1521.67 1322.71 1521.39Q1323.11 1521.1 1323.5 1520.8Q1323.89 1520.5 1324.27 1520.19Q1324.64 1519.88 1325.01 1519.55Q1325.38 1519.23 1325.74 1518.9Q1326.1 1518.56 1326.45 1518.21Q1326.79 1517.87 1327.13 1517.51Q1327.46 1517.15 1327.79 1516.78Q1328.11 1516.41 1328.42 1516.03Q1328.74 1515.65 1329.03 1515.26Q1329.33 1514.87 1329.62 1514.47Q1329.9 1514.08 1330.18 1513.67Q1330.45 1513.26 1330.71 1512.84Q1330.97 1512.42 1331.21 1512L1754.67 778.481Q1754.92 778.055 1755.15 777.622Q1755.38 777.19 1755.6 776.749Q1755.82 776.309 1756.02 775.862Q1756.22 775.415 1756.41 774.961Q1756.6 774.508 1756.77 774.048Q1756.94 773.589 1757.1 773.124Q1757.26 772.659 1757.4 772.19Q1757.54 771.72 1757.67 771.246Q1757.8 770.772 1757.91 770.294Q1758.02 769.815 1758.12 769.334Q1758.21 768.853 1758.29 768.368Q1758.37 767.884 1758.44 767.397Q1758.5 766.911 1758.55 766.422Q1758.6 765.934 1758.63 765.444Q1758.66 764.954 1758.68 764.463Q1758.69 763.973 1758.69 763.482Q1758.69 762.991 1758.68 762.5Q1758.66 762.01 1758.63 761.52Q1758.6 761.03 1758.55 760.542Q1758.5 760.053 1758.44 759.566Q1758.37 759.08 1758.29 758.595Q1758.21 758.111 1758.12 757.63Q1758.02 757.148 1757.91 756.67Q1757.8 756.192 1757.67 755.718Q1757.54 755.244 1757.4 754.774Q1757.26 754.304 1757.1 753.84Q1756.94 753.375 1756.77 752.915Q1756.6 752.456 1756.41 752.002Q1756.22 751.549 1756.02 751.102Q1755.82 750.655 1755.6 750.214Q1755.38 749.774 1755.15 749.341Q1754.92 748.908 1754.67 748.483L1331.21 15Q1330.97 14.5748 1330.71 14.1579Q1330.45 13.741 1330.18 13.3329Q1329.9 12.9247 1329.62 12.5256Q1329.33 12.1266 1329.03 11.7371Q1328.74 11.3477 1328.42 10.9682Q1328.11 10.5887 1327.79 10.2196Q1327.47 9.85052 1327.13 9.49222Q1326.79 9.13392 1326.45 8.78679Q1326.1 8.43966 1325.74 8.10407Q1325.38 7.76848 1325.01 7.4448Q1324.64 7.12112 1324.27 6.80968Q1323.89 6.49825 1323.5 6.1994Q1323.11 5.90055 1322.71 5.6146Q1322.31 5.32865 1321.9 5.05591Q1321.49 4.78317 1321.08 4.52393Q1320.66 4.2647 1320.23 4.01924Q1319.81 3.77378 1319.38 3.54236Q1318.94 3.31095 1318.5 3.09382Q1318.06 2.87669 1317.62 2.67409Q1317.17 2.47148 1316.71 2.28361Q1316.26 2.09575 1315.8 1.92282Q1315.34 1.7499 1314.88 1.5921Q1314.41 1.4343 1313.94 1.29179Q1313.47 1.14928 1313 1.02223Q1312.52 0.895167 1312.05 0.783691Q1311.57 0.672215 1311.09 0.576442Q1310.61 0.480669 1310.12 0.4007Q1309.64 0.320732 1309.15 0.256654Q1308.66 0.192577 1308.17 0.144458Q1307.69 0.0963399 1307.2 0.0642323Q1306.71 0.0321248 1306.22 0.0160624Q1305.72 0 1305.23 0Z" transform="translate(-731.1902 21.028135)" id="Path-Copy-2" fill="url(#gradient_1)" fill-rule="evenodd" stroke="none" />
    </g>
  </g>
</svg>