<?xml version="1.0" encoding="utf-8"?>
<svg width="283px" height="247px" viewBox="0 0 283 247" version="1.1" xmlns:xlink="http://www.w3.org/1999/xlink" xmlns="http://www.w3.org/2000/svg">
  <defs>
    <linearGradient x1="0.5423256" y1="0" x2="0.38298905" y2="0.5312446" id="gradient_1">
      <stop offset="0" stop-color="#214DA6" />
      <stop offset="1" stop-color="#FFFFFF" />
    </linearGradient>
    <linearGradient x1="0.38298905" y1="0.5312446" x2="0.5423256" y2="0" id="gradient_2">
      <stop offset="0" stop-color="#214DA6" />
      <stop offset="1" stop-color="#FFFFFF" />
    </linearGradient>
    <path d="M0 0L197 0L197 140L0 140L0 0Z" transform="translate(83 0)" id="path_1" />
    <path d="M0 0L104 0L104 74L0 74L0 0Z" transform="translate(136 16)" id="path_2" />
    <path d="M0 0L62 0L62 32L0 32L0 0Z" transform="translate(77 50)" id="path_3" />
    <clipPath id="mask_1">
      <use xlink:href="#path_1" />
    </clipPath>
    <clipPath id="mask_2">
      <use xlink:href="#path_2" />
    </clipPath>
    <clipPath id="mask_3">
      <use xlink:href="#path_3" />
    </clipPath>
  </defs>
  <g id="hexagons" transform="translate(1.3999023 1.4000244)">
    <path d="M193.392 0L80.6188 0Q79.9317 0 79.2461 0.0449124Q78.5605 0.0898249 77.8793 0.179458Q77.1981 0.26909 76.5242 0.40306Q75.8504 0.53703 75.1867 0.714763Q74.523 0.892497 73.8723 1.11323Q73.2217 1.33397 72.5869 1.59677Q71.9521 1.85956 71.3358 2.1633Q70.7195 2.46703 70.1244 2.8104Q69.5293 3.15376 68.9579 3.5353Q68.3865 3.91683 67.8412 4.3349Q67.296 4.75297 66.7793 5.20579Q66.2625 5.65861 65.7765 6.14423Q65.2904 6.62986 64.8372 7.14622Q64.3839 7.66258 63.9654 8.20746Q63.5469 8.75235 63.1649 9.32342Q62.7829 9.8945 62.439 10.4893L6.07547 107.988Q5.73105 108.584 5.42639 109.201Q5.12172 109.818 4.8581 110.453Q4.59449 111.089 4.37306 111.74Q4.15162 112.392 3.97333 113.057Q3.79503 113.721 3.66063 114.396Q3.52623 115.071 3.43631 115.753Q3.34638 116.436 3.30132 117.122Q3.25626 117.809 3.25625 118.497Q3.25625 119.185 3.30129 119.872Q3.34634 120.559 3.43625 121.241Q3.52616 121.923 3.66055 122.598Q3.79493 123.273 3.97321 123.938Q4.1515 124.602 4.37292 125.254Q4.59433 125.906 4.85794 126.541Q5.12154 127.177 5.42619 127.794Q5.73085 128.411 6.07525 129.007L62.4391 226.51Q62.7829 227.105 63.1649 227.676Q63.5469 228.247 63.9655 228.792Q64.384 229.337 64.8373 229.854Q65.2905 230.37 65.7765 230.856Q66.2626 231.341 66.7793 231.794Q67.2961 232.247 67.8413 232.665Q68.3865 233.083 68.9579 233.465Q69.5293 233.846 70.1245 234.189Q70.7196 234.533 71.3359 234.837Q71.9522 235.14 72.587 235.403Q73.2219 235.666 73.8725 235.887Q74.5232 236.107 75.1869 236.285Q75.8506 236.463 76.5245 236.597Q77.1983 236.731 77.8795 236.821Q78.5608 236.91 79.2464 236.955Q79.932 237 80.6191 237L193.391 237Q194.078 237 194.764 236.955Q195.45 236.91 196.131 236.821Q196.812 236.731 197.486 236.597Q198.16 236.463 198.824 236.285Q199.488 236.107 200.138 235.887Q200.789 235.666 201.424 235.403Q202.059 235.14 202.675 234.836Q203.291 234.533 203.887 234.189Q204.482 233.846 205.053 233.464Q205.625 233.083 206.17 232.664Q206.715 232.246 207.232 231.793Q207.749 231.34 208.235 230.855Q208.721 230.369 209.174 229.853Q209.627 229.336 210.046 228.791Q210.464 228.246 210.846 227.675Q211.228 227.104 211.572 226.509L267.927 129.005Q268.271 128.41 268.575 127.793Q268.88 127.176 269.143 126.54Q269.407 125.905 269.628 125.253Q269.85 124.602 270.028 123.937Q270.206 123.272 270.341 122.598Q270.475 121.923 270.565 121.241Q270.655 120.558 270.7 119.872Q270.745 119.185 270.745 118.497Q270.745 117.809 270.7 117.123Q270.655 116.436 270.565 115.754Q270.475 115.072 270.34 114.397Q270.206 113.722 270.028 113.057Q269.85 112.393 269.628 111.741Q269.407 111.09 269.143 110.454Q268.88 109.819 268.575 109.202Q268.271 108.585 267.926 107.989L211.572 10.4906Q211.228 9.89574 210.846 9.32459Q210.464 8.75345 210.046 8.20851Q209.627 7.66356 209.174 7.14714Q208.721 6.63072 208.235 6.14503Q207.749 5.65934 207.232 5.20647Q206.715 4.7536 206.17 4.33547Q205.625 3.91735 205.053 3.53577Q204.482 3.15418 203.887 2.81077Q203.292 2.46736 202.675 2.16359Q202.059 1.85982 201.424 1.59698Q200.789 1.33415 200.138 1.11338Q199.488 0.892618 198.824 0.714861Q198.16 0.537103 197.486 0.403115Q196.812 0.269127 196.131 0.179482Q195.45 0.0898372 194.764 0.0449186Q194.079 0 193.392 0Z" transform="translate(0 7)" id="Path-Copy" fill="none" stroke="url(#gradient_1)" stroke-opacity="0.3" stroke-width="0.7" />
    <path d="M0 0L197 0L197 140L0 140L0 0Z" transform="translate(83 0)" id="Mask" fill="none" fill-rule="evenodd" stroke="none" />
    <g clip-path="url(#mask_1)">
      <path d="M193.392 0L80.6188 0Q79.9317 0 79.2461 0.0449124Q78.5605 0.0898249 77.8793 0.179458Q77.1981 0.26909 76.5242 0.40306Q75.8504 0.53703 75.1867 0.714763Q74.523 0.892497 73.8723 1.11323Q73.2217 1.33397 72.5869 1.59677Q71.9521 1.85956 71.3358 2.1633Q70.7195 2.46703 70.1244 2.8104Q69.5293 3.15376 68.9579 3.5353Q68.3865 3.91683 67.8412 4.3349Q67.296 4.75297 66.7793 5.20579Q66.2625 5.65861 65.7765 6.14423Q65.2904 6.62986 64.8372 7.14622Q64.3839 7.66258 63.9654 8.20746Q63.5469 8.75235 63.1649 9.32342Q62.7829 9.8945 62.439 10.4893L6.07547 107.988Q5.73105 108.584 5.42639 109.201Q5.12172 109.818 4.8581 110.453Q4.59449 111.089 4.37306 111.74Q4.15162 112.392 3.97333 113.057Q3.79503 113.721 3.66063 114.396Q3.52623 115.071 3.43631 115.753Q3.34638 116.436 3.30132 117.122Q3.25626 117.809 3.25625 118.497Q3.25625 119.185 3.30129 119.872Q3.34634 120.559 3.43625 121.241Q3.52616 121.923 3.66055 122.598Q3.79493 123.273 3.97321 123.938Q4.1515 124.602 4.37292 125.254Q4.59433 125.906 4.85794 126.541Q5.12154 127.177 5.42619 127.794Q5.73085 128.411 6.07525 129.007L62.4391 226.51Q62.7829 227.105 63.1649 227.676Q63.5469 228.247 63.9655 228.792Q64.384 229.337 64.8373 229.854Q65.2905 230.37 65.7765 230.856Q66.2626 231.341 66.7793 231.794Q67.2961 232.247 67.8413 232.665Q68.3865 233.083 68.9579 233.465Q69.5293 233.846 70.1245 234.189Q70.7196 234.533 71.3359 234.837Q71.9522 235.14 72.587 235.403Q73.2219 235.666 73.8725 235.887Q74.5232 236.107 75.1869 236.285Q75.8506 236.463 76.5245 236.597Q77.1983 236.731 77.8795 236.821Q78.5608 236.91 79.2464 236.955Q79.932 237 80.6191 237L193.391 237Q194.078 237 194.764 236.955Q195.45 236.91 196.131 236.821Q196.812 236.731 197.486 236.597Q198.16 236.463 198.824 236.285Q199.488 236.107 200.138 235.887Q200.789 235.666 201.424 235.403Q202.059 235.14 202.675 234.836Q203.291 234.533 203.887 234.189Q204.482 233.846 205.053 233.464Q205.625 233.083 206.17 232.664Q206.715 232.246 207.232 231.793Q207.749 231.34 208.235 230.855Q208.721 230.369 209.174 229.853Q209.627 229.336 210.046 228.791Q210.464 228.246 210.846 227.675Q211.228 227.104 211.572 226.509L267.927 129.005Q268.271 128.41 268.575 127.793Q268.88 127.176 269.143 126.54Q269.407 125.905 269.628 125.253Q269.85 124.602 270.028 123.937Q270.206 123.272 270.341 122.598Q270.475 121.923 270.565 121.241Q270.655 120.558 270.7 119.872Q270.745 119.185 270.745 118.497Q270.745 117.809 270.7 117.123Q270.655 116.436 270.565 115.754Q270.475 115.072 270.34 114.397Q270.206 113.722 270.028 113.057Q269.85 112.393 269.628 111.741Q269.407 111.09 269.143 110.454Q268.88 109.819 268.575 109.202Q268.271 108.585 267.926 107.989L211.572 10.4906Q211.228 9.89574 210.846 9.32459Q210.464 8.75345 210.046 8.20851Q209.627 7.66356 209.174 7.14714Q208.721 6.63072 208.235 6.14503Q207.749 5.65934 207.232 5.20647Q206.715 4.7536 206.17 4.33547Q205.625 3.91735 205.053 3.53577Q204.482 3.15418 203.887 2.81077Q203.292 2.46736 202.675 2.16359Q202.059 1.85982 201.424 1.59698Q200.789 1.33415 200.138 1.11338Q199.488 0.892618 198.824 0.714861Q198.16 0.537103 197.486 0.403115Q196.812 0.269127 196.131 0.179482Q195.45 0.0898372 194.764 0.0449186Q194.079 0 193.392 0Z" transform="translate(0 7)" id="Path-Copy" fill="none" stroke="#222D4C" stroke-width="2.8" />
      <path d="M155.105 0L67.9031 0Q67.2144 0 66.5272 0.0451263Q65.84 0.0902526 65.1572 0.180311Q64.4744 0.27037 63.799 0.404974Q63.1235 0.539578 62.4584 0.718148Q61.7932 0.896719 61.1412 1.11849Q60.4892 1.34026 59.8531 1.60427Q59.217 1.86829 58.5996 2.17342Q57.9822 2.47855 57.3861 2.82347Q56.79 3.1684 56.2177 3.55165Q55.6455 3.93489 55.0996 4.3548Q54.5538 4.77472 54.0366 5.2295Q53.5194 5.68428 53.0331 6.17197Q52.5468 6.65966 52.0935 7.17817Q51.6403 7.69668 51.2219 8.24377Q50.8036 8.79086 50.422 9.36419Q50.0404 9.93752 49.6972 10.5346L6.01457 86.5335Q5.67327 87.1273 5.37139 87.7421Q5.06951 88.3569 4.80833 88.99Q4.54715 89.6231 4.32778 90.2719Q4.10841 90.9207 3.93179 91.5825Q3.75516 92.2442 3.62203 92.916Q3.48889 93.5878 3.39982 94.2669Q3.31075 94.946 3.26611 95.6294Q3.22148 96.3128 3.22147 96.9977Q3.22146 97.6826 3.26608 98.366Q3.3107 99.0495 3.39976 99.7285Q3.48882 100.408 3.62194 101.079Q3.75506 101.751 3.93167 102.413Q4.10829 103.075 4.32764 103.724Q4.547 104.372 4.80817 105.005Q5.06933 105.639 5.3712 106.253Q5.67307 106.868 6.01436 107.462L49.6973 183.465Q50.0405 184.062 50.4221 184.635Q50.8037 185.209 51.222 185.756Q51.6403 186.303 52.0936 186.822Q52.5469 187.34 53.0332 187.828Q53.5195 188.316 54.0367 188.77Q54.5538 189.225 55.0997 189.645Q55.6456 190.065 56.2178 190.448Q56.7901 190.831 57.3862 191.176Q57.9823 191.521 58.5997 191.827Q59.2172 192.132 59.8533 192.396Q60.4894 192.66 61.1414 192.882Q61.7934 193.103 62.4586 193.282Q63.1237 193.46 63.7992 193.595Q64.4746 193.73 65.1574 193.82Q65.8402 193.91 66.5275 193.955Q67.2147 194 67.9034 194L155.105 194Q155.794 194 156.481 193.955Q157.168 193.91 157.851 193.82Q158.534 193.73 159.209 193.595Q159.885 193.46 160.55 193.282Q161.215 193.103 161.867 192.881Q162.519 192.66 163.156 192.395Q163.792 192.131 164.409 191.826Q165.027 191.521 165.623 191.176Q166.219 190.831 166.791 190.448Q167.363 190.064 167.909 189.644Q168.455 189.224 168.972 188.77Q169.49 188.315 169.976 187.827Q170.462 187.339 170.915 186.821Q171.369 186.302 171.787 185.755Q172.205 185.208 172.587 184.634Q172.969 184.061 173.312 183.464L216.987 107.461Q217.329 106.867 217.63 106.252Q217.932 105.637 218.193 105.004Q218.454 104.371 218.674 103.723Q218.893 103.074 219.07 102.412Q219.246 101.751 219.379 101.079Q219.512 100.407 219.601 99.7282Q219.69 99.0492 219.735 98.3658Q219.78 97.6825 219.78 96.9977Q219.78 96.3129 219.735 95.6296Q219.69 94.9463 219.601 94.2673Q219.512 93.5883 219.379 92.9166Q219.246 92.2448 219.069 91.5832Q218.893 90.9216 218.674 90.2728Q218.454 89.6241 218.193 88.9911Q217.932 88.358 217.63 87.7433Q217.328 87.1286 216.987 86.5349L173.312 10.5359Q172.969 9.93876 172.587 9.36537Q172.205 8.79197 171.787 8.24482Q171.369 7.69766 170.915 7.17909Q170.462 6.66052 169.976 6.17277Q169.49 5.68502 168.972 5.23019Q168.455 4.77535 167.909 4.35538Q167.363 3.93541 166.791 3.55212Q166.219 3.16882 165.623 2.82385Q165.027 2.47888 164.409 2.17371Q163.792 1.86854 163.156 1.60449Q162.52 1.34044 161.867 1.11864Q161.215 0.896841 160.55 0.718246Q159.885 0.539651 159.21 0.405029Q158.534 0.270407 157.851 0.180336Q157.168 0.0902649 156.481 0.0451325Q155.794 0 155.105 0Z" transform="translate(25 30)" id="Path-Copy-3" fill="none" stroke="url(#gradient_1)" stroke-opacity="0.3" stroke-width="0.7" />
    </g>
    <path d="M0 0L104 0L104 74L0 74L0 0Z" transform="translate(136 16)" id="Mask" fill="none" fill-rule="evenodd" stroke="none" />
    <path d="M155.105 0L67.9031 0Q67.2144 0 66.5272 0.0451263Q65.84 0.0902526 65.1572 0.180311Q64.4744 0.27037 63.799 0.404974Q63.1235 0.539578 62.4584 0.718148Q61.7932 0.896719 61.1412 1.11849Q60.4892 1.34026 59.8531 1.60427Q59.217 1.86829 58.5996 2.17342Q57.9822 2.47855 57.3861 2.82347Q56.79 3.1684 56.2177 3.55165Q55.6455 3.93489 55.0996 4.3548Q54.5538 4.77472 54.0366 5.2295Q53.5194 5.68428 53.0331 6.17197Q52.5468 6.65966 52.0935 7.17817Q51.6403 7.69668 51.2219 8.24377Q50.8036 8.79086 50.422 9.36419Q50.0404 9.93752 49.6972 10.5346L6.01457 86.5335Q5.67327 87.1273 5.37139 87.7421Q5.06951 88.3569 4.80833 88.99Q4.54715 89.6231 4.32778 90.2719Q4.10841 90.9207 3.93179 91.5825Q3.75516 92.2442 3.62203 92.916Q3.48889 93.5878 3.39982 94.2669Q3.31075 94.946 3.26611 95.6294Q3.22148 96.3128 3.22147 96.9977Q3.22146 97.6826 3.26608 98.366Q3.3107 99.0495 3.39976 99.7285Q3.48882 100.408 3.62194 101.079Q3.75506 101.751 3.93167 102.413Q4.10829 103.075 4.32764 103.724Q4.547 104.372 4.80817 105.005Q5.06933 105.639 5.3712 106.253Q5.67307 106.868 6.01436 107.462L49.6973 183.465Q50.0405 184.062 50.4221 184.635Q50.8037 185.209 51.222 185.756Q51.6403 186.303 52.0936 186.822Q52.5469 187.34 53.0332 187.828Q53.5195 188.316 54.0367 188.77Q54.5538 189.225 55.0997 189.645Q55.6456 190.065 56.2178 190.448Q56.7901 190.831 57.3862 191.176Q57.9823 191.521 58.5997 191.827Q59.2172 192.132 59.8533 192.396Q60.4894 192.66 61.1414 192.882Q61.7934 193.103 62.4586 193.282Q63.1237 193.46 63.7992 193.595Q64.4746 193.73 65.1574 193.82Q65.8402 193.91 66.5275 193.955Q67.2147 194 67.9034 194L155.105 194Q155.794 194 156.481 193.955Q157.168 193.91 157.851 193.82Q158.534 193.73 159.209 193.595Q159.885 193.46 160.55 193.282Q161.215 193.103 161.867 192.881Q162.519 192.66 163.156 192.395Q163.792 192.131 164.409 191.826Q165.027 191.521 165.623 191.176Q166.219 190.831 166.791 190.448Q167.363 190.064 167.909 189.644Q168.455 189.224 168.972 188.77Q169.49 188.315 169.976 187.827Q170.462 187.339 170.915 186.821Q171.369 186.302 171.787 185.755Q172.205 185.208 172.587 184.634Q172.969 184.061 173.312 183.464L216.987 107.461Q217.329 106.867 217.63 106.252Q217.932 105.637 218.193 105.004Q218.454 104.371 218.674 103.723Q218.893 103.074 219.07 102.412Q219.246 101.751 219.379 101.079Q219.512 100.407 219.601 99.7282Q219.69 99.0492 219.735 98.3658Q219.78 97.6825 219.78 96.9977Q219.78 96.3129 219.735 95.6296Q219.69 94.9463 219.601 94.2673Q219.512 93.5883 219.379 92.9166Q219.246 92.2448 219.069 91.5832Q218.893 90.9216 218.674 90.2728Q218.454 89.6241 218.193 88.9911Q217.932 88.358 217.63 87.7433Q217.328 87.1286 216.987 86.5349L173.312 10.5359Q172.969 9.93876 172.587 9.36537Q172.205 8.79197 171.787 8.24482Q171.369 7.69766 170.915 7.17909Q170.462 6.66052 169.976 6.17277Q169.49 5.68502 168.972 5.23019Q168.455 4.77535 167.909 4.35538Q167.363 3.93541 166.791 3.55212Q166.219 3.16882 165.623 2.82385Q165.027 2.47888 164.409 2.17371Q163.792 1.86854 163.156 1.60449Q162.52 1.34044 161.867 1.11864Q161.215 0.896841 160.55 0.718246Q159.885 0.539651 159.21 0.405029Q158.534 0.270407 157.851 0.180336Q157.168 0.0902649 156.481 0.0451325Q155.794 0 155.105 0Z" transform="translate(25 30)" id="Path-Copy-3" fill="none" stroke="#22B3F2" stroke-width="2.8" />
    <path d="M110.138 0L52.8681 0Q52.181 0 51.4954 0.0449153Q50.8098 0.0898307 50.1286 0.179469Q49.4473 0.269108 48.7734 0.403086Q48.0995 0.537064 47.4358 0.714809Q46.7721 0.892554 46.1215 1.1133Q45.4708 1.33406 44.836 1.59687Q44.2011 1.85968 43.5848 2.16343Q42.9685 2.46718 42.3734 2.81057Q41.7783 3.15396 41.2068 3.53552Q40.6354 3.91708 40.0902 4.33517Q39.545 4.75327 39.0282 5.20611Q38.5115 5.65895 38.0254 6.14461Q37.5394 6.63026 37.0861 7.14665Q36.6329 7.66304 36.2144 8.20795Q35.7958 8.75286 35.4138 9.32397Q35.0318 9.89508 34.688 10.4899L6.07464 59.9895Q5.73027 60.5852 5.42564 61.2023Q5.12101 61.8193 4.85743 62.4549Q4.59385 63.0905 4.37244 63.742Q4.15104 64.3936 3.97276 65.0582Q3.79449 65.7228 3.66011 66.3977Q3.52573 67.0725 3.43581 67.7547Q3.3459 68.437 3.30085 69.1236Q3.25579 69.8102 3.25578 70.4984Q3.25577 71.1865 3.30082 71.8731Q3.34586 72.5597 3.43576 73.242Q3.52565 73.9242 3.66002 74.599Q3.79439 75.2739 3.97265 75.9385Q4.15091 76.6031 4.3723 77.2547Q4.59369 77.9062 4.85726 78.5418Q5.12083 79.1775 5.42545 79.7945Q5.73007 80.4115 6.07442 81.0073L34.688 130.51Q35.0319 131.105 35.4139 131.676Q35.7959 132.247 36.2144 132.792Q36.6329 133.337 37.0862 133.853Q37.5394 134.369 38.0255 134.855Q38.5115 135.341 39.0283 135.794Q39.545 136.247 40.0903 136.665Q40.6355 137.083 41.2069 137.464Q41.7783 137.846 42.3735 138.189Q42.9686 138.533 43.5849 138.836Q44.2012 139.14 44.8361 139.403Q45.4709 139.666 46.1216 139.887Q46.7723 140.107 47.436 140.285Q48.0997 140.463 48.7736 140.597Q49.4476 140.731 50.1288 140.821Q50.81 140.91 51.4957 140.955Q52.1813 141 52.8684 141L110.137 141Q110.825 141 111.51 140.955Q112.196 140.91 112.877 140.82Q113.558 140.731 114.232 140.597Q114.906 140.463 115.57 140.285Q116.234 140.107 116.885 139.887Q117.535 139.666 118.17 139.403Q118.805 139.14 119.421 138.836Q120.038 138.532 120.633 138.189Q121.228 137.846 121.8 137.464Q122.371 137.082 122.916 136.664Q123.462 136.246 123.978 135.793Q124.495 135.34 124.981 134.854Q125.467 134.369 125.92 133.852Q126.374 133.336 126.792 132.791Q127.211 132.246 127.593 131.675Q127.975 131.103 128.318 130.508L156.927 81.006Q157.272 80.4103 157.576 79.7933Q157.881 79.1764 158.144 78.5408Q158.408 77.9053 158.629 77.2538Q158.85 76.6024 159.029 75.9378Q159.207 75.2733 159.341 74.5985Q159.475 73.9237 159.565 73.2416Q159.655 72.5595 159.7 71.8729Q159.745 71.1864 159.745 70.4984Q159.745 69.8103 159.7 69.1238Q159.655 68.4372 159.565 67.7551Q159.475 67.073 159.341 66.3982Q159.207 65.7235 159.028 65.0589Q158.85 64.3944 158.629 63.7429Q158.408 63.0915 158.144 62.4559Q157.881 61.8204 157.576 61.2034Q157.271 60.5865 156.927 59.9908L128.319 10.4912Q127.975 9.89631 127.593 9.32514Q127.211 8.75397 126.792 8.209Q126.374 7.66402 125.92 7.14757Q125.467 6.63112 124.981 6.1454Q124.495 5.65969 123.978 5.20679Q123.462 4.75389 122.916 4.33574Q122.371 3.91759 121.8 3.53599Q121.228 3.15438 120.633 2.81095Q120.038 2.46751 119.422 2.16372Q118.805 1.85993 118.17 1.59708Q117.535 1.33424 116.885 1.11346Q116.234 0.892675 115.57 0.714906Q114.907 0.537137 114.233 0.403141Q113.559 0.269144 112.877 0.179494Q112.196 0.089843 111.51 0.0449215Q110.825 0 110.138 0Z" transform="translate(55 57)" id="Path-Copy-3" fill="none" stroke="url(#gradient_2)" stroke-opacity="0.3" stroke-width="0.7" />
    <path d="M0 0L62 0L62 32L0 32L0 0Z" transform="translate(77 50)" id="Mask" fill="none" fill-rule="evenodd" stroke="none" />
    <g clip-path="url(#mask_3)">
      <path d="M110.138 0L52.8681 0Q52.181 0 51.4954 0.0449153Q50.8098 0.0898307 50.1286 0.179469Q49.4473 0.269108 48.7734 0.403086Q48.0995 0.537064 47.4358 0.714809Q46.7721 0.892554 46.1215 1.1133Q45.4708 1.33406 44.836 1.59687Q44.2011 1.85968 43.5848 2.16343Q42.9685 2.46718 42.3734 2.81057Q41.7783 3.15396 41.2068 3.53552Q40.6354 3.91708 40.0902 4.33517Q39.545 4.75327 39.0282 5.20611Q38.5115 5.65895 38.0254 6.14461Q37.5394 6.63026 37.0861 7.14665Q36.6329 7.66304 36.2144 8.20795Q35.7958 8.75286 35.4138 9.32397Q35.0318 9.89508 34.688 10.4899L6.07464 59.9895Q5.73027 60.5852 5.42564 61.2023Q5.12101 61.8193 4.85743 62.4549Q4.59385 63.0905 4.37244 63.742Q4.15104 64.3936 3.97276 65.0582Q3.79449 65.7228 3.66011 66.3977Q3.52573 67.0725 3.43581 67.7547Q3.3459 68.437 3.30085 69.1236Q3.25579 69.8102 3.25578 70.4984Q3.25577 71.1865 3.30082 71.8731Q3.34586 72.5597 3.43576 73.242Q3.52565 73.9242 3.66002 74.599Q3.79439 75.2739 3.97265 75.9385Q4.15091 76.6031 4.3723 77.2547Q4.59369 77.9062 4.85726 78.5418Q5.12083 79.1775 5.42545 79.7945Q5.73007 80.4115 6.07442 81.0073L34.688 130.51Q35.0319 131.105 35.4139 131.676Q35.7959 132.247 36.2144 132.792Q36.6329 133.337 37.0862 133.853Q37.5394 134.369 38.0255 134.855Q38.5115 135.341 39.0283 135.794Q39.545 136.247 40.0903 136.665Q40.6355 137.083 41.2069 137.464Q41.7783 137.846 42.3735 138.189Q42.9686 138.533 43.5849 138.836Q44.2012 139.14 44.8361 139.403Q45.4709 139.666 46.1216 139.887Q46.7723 140.107 47.436 140.285Q48.0997 140.463 48.7736 140.597Q49.4476 140.731 50.1288 140.821Q50.81 140.91 51.4957 140.955Q52.1813 141 52.8684 141L110.137 141Q110.825 141 111.51 140.955Q112.196 140.91 112.877 140.82Q113.558 140.731 114.232 140.597Q114.906 140.463 115.57 140.285Q116.234 140.107 116.885 139.887Q117.535 139.666 118.17 139.403Q118.805 139.14 119.421 138.836Q120.038 138.532 120.633 138.189Q121.228 137.846 121.8 137.464Q122.371 137.082 122.916 136.664Q123.462 136.246 123.978 135.793Q124.495 135.34 124.981 134.854Q125.467 134.369 125.92 133.852Q126.374 133.336 126.792 132.791Q127.211 132.246 127.593 131.675Q127.975 131.103 128.318 130.508L156.927 81.006Q157.272 80.4103 157.576 79.7933Q157.881 79.1764 158.144 78.5408Q158.408 77.9053 158.629 77.2538Q158.85 76.6024 159.029 75.9378Q159.207 75.2733 159.341 74.5985Q159.475 73.9237 159.565 73.2416Q159.655 72.5595 159.7 71.8729Q159.745 71.1864 159.745 70.4984Q159.745 69.8103 159.7 69.1238Q159.655 68.4372 159.565 67.7551Q159.475 67.073 159.341 66.3982Q159.207 65.7235 159.028 65.0589Q158.85 64.3944 158.629 63.7429Q158.408 63.0915 158.144 62.4559Q157.881 61.8204 157.576 61.2034Q157.271 60.5865 156.927 59.9908L128.319 10.4912Q127.975 9.89631 127.593 9.32514Q127.211 8.75397 126.792 8.209Q126.374 7.66402 125.92 7.14757Q125.467 6.63112 124.981 6.1454Q124.495 5.65969 123.978 5.20679Q123.462 4.75389 122.916 4.33574Q122.371 3.91759 121.8 3.53599Q121.228 3.15438 120.633 2.81095Q120.038 2.46751 119.422 2.16372Q118.805 1.85993 118.17 1.59708Q117.535 1.33424 116.885 1.11346Q116.234 0.892675 115.57 0.714906Q114.907 0.537137 114.233 0.403141Q113.559 0.269144 112.877 0.179494Q112.196 0.089843 111.51 0.0449215Q110.825 0 110.138 0Z" transform="translate(55 57)" id="Path-Copy-3" fill="none" stroke="#222D4C" stroke-width="2.8" />
    </g>
  </g>
</svg>