<?xml version="1.0" encoding="utf-8"?>
<svg width="308px" height="266px" viewBox="0 0 308 266" version="1.1" xmlns:xlink="http://www.w3.org/1999/xlink" xmlns="http://www.w3.org/2000/svg">
  <defs>
    <linearGradient x1="0.40276596" y1="0.3563023" x2="0.5423256" y2="0" id="gradient_1">
      <stop offset="0" stop-color="#FFFFFF" />
      <stop offset="1" stop-color="#19193C" />
    </linearGradient>
  </defs>
  <path d="M212.2 0L93.8255 0Q93.3346 0 92.844 0.0160602Q92.3534 0.0321204 91.8635 0.0642236Q91.3737 0.0963267 90.8852 0.144439Q90.3967 0.19255 89.91 0.256619Q89.4233 0.320688 88.939 0.400646Q88.4547 0.480603 87.9733 0.576363Q87.4918 0.672124 87.0138 0.783584Q86.5357 0.895045 86.0616 1.02209Q85.5874 1.14913 85.1177 1.29161Q84.6479 1.4341 84.1831 1.59188Q83.7183 1.74966 83.2589 1.92256Q82.7994 2.09546 82.3459 2.28331Q81.8924 2.47115 81.4453 2.67372Q80.9982 2.8763 80.5579 3.0934Q80.1176 3.3105 79.6847 3.54189Q79.2518 3.77327 78.8267 4.0187Q78.4016 4.26413 77.9847 4.52333Q77.5678 4.78253 77.1597 5.05524Q76.7515 5.32794 76.3525 5.61385Q75.9535 5.89976 75.564 6.19858Q75.1746 6.49739 74.7951 6.80879Q74.4157 7.12018 74.0466 7.44382Q73.6775 7.76747 73.3192 8.10301Q72.961 8.43856 72.6138 8.78565Q72.2667 9.13273 71.9312 9.49099Q71.5956 9.84925 71.2719 10.2183Q70.9482 10.5873 70.6368 10.9668Q70.3254 11.3462 70.0265 11.7356Q69.7277 12.1251 69.4417 12.5241Q69.1558 12.9231 68.8831 13.3312Q68.6103 13.7393 68.3511 14.1562Q68.0919 14.573 67.8464 14.9981L8.66165 117.496Q8.41616 117.921 8.1847 118.354Q7.95326 118.787 7.73609 119.228Q7.51894 119.668 7.3163 120.115Q7.11366 120.562 6.92577 121.016Q6.73787 121.469 6.56492 121.929Q6.39197 122.388 6.23414 122.853Q6.07632 123.318 5.93379 123.788Q5.79126 124.258 5.66418 124.732Q5.5371 125.206 5.4256 125.684Q5.31411 126.162 5.21831 126.644Q5.12252 127.125 5.04254 127.61Q4.96256 128.094 4.89846 128.581Q4.83437 129.068 4.78624 129.556Q4.73811 130.045 4.706 130.535Q4.67388 131.025 4.65781 131.515Q4.64174 132.006 4.64173 132.497Q4.64173 132.988 4.65779 133.479Q4.67385 133.969 4.70596 134.459Q4.73806 134.949 4.78618 135.438Q4.8343 135.926 4.89838 136.413Q4.96246 136.9 5.04244 137.384Q5.12241 137.868 5.21819 138.35Q5.31397 138.831 5.42546 139.31Q5.53694 139.788 5.66401 140.262Q5.79109 140.736 5.93361 141.206Q6.07613 141.676 6.23394 142.141Q6.39176 142.605 6.5647 143.065Q6.73764 143.524 6.92553 143.978Q7.11342 144.432 7.31604 144.879Q7.51867 145.326 7.73582 145.766Q7.95297 146.206 8.18441 146.639Q8.41585 147.072 8.66134 147.498L67.8465 250.001Q68.092 250.426 68.3512 250.843Q68.6104 251.26 68.8832 251.668Q69.1559 252.076 69.4418 252.475Q69.7278 252.874 70.0266 253.264Q70.3255 253.653 70.6369 254.033Q70.9483 254.412 71.272 254.781Q71.5957 255.15 71.9312 255.509Q72.2668 255.867 72.6139 256.214Q72.961 256.561 73.3193 256.897Q73.6776 257.232 74.0467 257.556Q74.4158 257.88 74.7952 258.191Q75.1747 258.502 75.5641 258.801Q75.9536 259.1 76.3526 259.386Q76.7516 259.672 77.1598 259.945Q77.568 260.217 77.9848 260.477Q78.4017 260.736 78.8268 260.981Q79.252 261.227 79.6849 261.458Q80.1178 261.689 80.5581 261.906Q80.9983 262.124 81.4455 262.326Q81.8926 262.529 82.3461 262.717Q82.7996 262.904 83.2591 263.077Q83.7185 263.25 84.1833 263.408Q84.6482 263.566 85.1179 263.708Q85.5877 263.851 86.0618 263.978Q86.536 264.105 87.014 264.216Q87.4921 264.328 87.9736 264.424Q88.455 264.519 88.9393 264.599Q89.4237 264.679 89.9104 264.743Q90.397 264.807 90.8856 264.856Q91.3741 264.904 91.8639 264.936Q92.3538 264.968 92.8444 264.984Q93.335 265 93.8259 265L212.199 265Q212.69 265 213.181 264.984Q213.671 264.968 214.161 264.936Q214.651 264.904 215.14 264.856Q215.628 264.807 216.115 264.743Q216.602 264.679 217.086 264.599Q217.57 264.519 218.052 264.424Q218.533 264.328 219.011 264.216Q219.49 264.105 219.964 263.978Q220.438 263.851 220.908 263.708Q221.377 263.566 221.842 263.408Q222.307 263.25 222.767 263.077Q223.226 262.904 223.68 262.716Q224.133 262.528 224.58 262.326Q225.028 262.123 225.468 261.906Q225.908 261.689 226.341 261.458Q226.774 261.226 227.199 260.981Q227.624 260.735 228.041 260.476Q228.458 260.217 228.866 259.944Q229.274 259.671 229.673 259.385Q230.073 259.099 230.462 258.8Q230.851 258.502 231.231 258.19Q231.61 257.879 231.979 257.555Q232.349 257.231 232.707 256.896Q233.065 256.56 233.412 256.213Q233.759 255.866 234.095 255.507Q234.431 255.149 234.754 254.78Q235.078 254.411 235.389 254.031Q235.701 253.652 236 253.262Q236.298 252.873 236.584 252.474Q236.87 252.075 237.143 251.667Q237.416 251.258 237.675 250.842Q237.934 250.425 238.18 249.999L297.355 147.496Q297.6 147.071 297.832 146.638Q298.063 146.205 298.28 145.764Q298.497 145.324 298.7 144.877Q298.903 144.43 299.09 143.976Q299.278 143.523 299.451 143.064Q299.624 142.604 299.782 142.139Q299.94 141.674 300.082 141.205Q300.224 140.735 300.352 140.261Q300.479 139.787 300.59 139.309Q300.701 138.831 300.797 138.349Q300.893 137.868 300.973 137.383Q301.053 136.899 301.117 136.412Q301.181 135.926 301.229 135.437Q301.277 134.949 301.309 134.459Q301.341 133.969 301.358 133.478Q301.374 132.988 301.374 132.497Q301.374 132.006 301.357 131.515Q301.341 131.025 301.309 130.535Q301.277 130.045 301.229 129.557Q301.181 129.068 301.117 128.581Q301.053 128.095 300.973 127.61Q300.893 127.126 300.797 126.645Q300.701 126.163 300.59 125.685Q300.478 125.207 300.351 124.733Q300.224 124.259 300.082 123.789Q299.939 123.319 299.782 122.855Q299.624 122.39 299.451 121.93Q299.278 121.471 299.09 121.017Q298.902 120.564 298.7 120.117Q298.497 119.67 298.28 119.229Q298.063 118.789 297.831 118.356Q297.6 117.923 297.355 117.498L238.18 15Q237.934 14.5748 237.675 14.1579Q237.416 13.741 237.143 13.3329Q236.87 12.9247 236.584 12.5256Q236.299 12.1266 236 11.7371Q235.701 11.3477 235.389 10.9682Q235.078 10.5887 234.754 10.2196Q234.431 9.85052 234.095 9.49222Q233.759 9.13392 233.412 8.78679Q233.065 8.43966 232.707 8.10407Q232.349 7.76848 231.98 7.4448Q231.611 7.12112 231.231 6.80968Q230.852 6.49825 230.462 6.1994Q230.073 5.90055 229.674 5.6146Q229.275 5.32865 228.866 5.05591Q228.458 4.78317 228.041 4.52393Q227.624 4.2647 227.199 4.01924Q226.774 3.77378 226.341 3.54236Q225.908 3.31095 225.468 3.09382Q225.028 2.87669 224.581 2.67409Q224.133 2.47148 223.68 2.28361Q223.226 2.09575 222.767 1.92282Q222.307 1.7499 221.843 1.5921Q221.378 1.4343 220.908 1.29179Q220.438 1.14928 219.964 1.02223Q219.49 0.895167 219.012 0.783691Q218.534 0.672215 218.052 0.576442Q217.571 0.480669 217.086 0.4007Q216.602 0.320732 216.115 0.256654Q215.629 0.192577 215.14 0.144458Q214.652 0.0963399 214.162 0.0642323Q213.672 0.0321248 213.181 0.0160624Q212.691 0 212.2 0Z" transform="translate(0.5 0.5)" id="hexagon" fill="none" stroke="url(#gradient_1)" stroke-opacity="0.1858194" stroke-width="1" />
</svg>